<svg width="46" height="32" viewBox="0 0 46 32" fill="none" xmlns="http://www.w3.org/2000/svg">
<rect x="0.5" y="0.5" width="45" height="31" rx="3.5" fill="white"/>
<rect x="0.5" y="0.5" width="45" height="31" rx="3.5" stroke="#F4F4F5"/>
<path d="M8.17413 15.7908C9.56485 15.7909 10.6311 16.4145 10.6312 17.949V21.6648H9.10675V20.7781C8.76019 21.3781 8.03167 21.8326 7.21417 21.8328C6.06758 21.8328 5.33331 21.209 5.33331 20.1785C5.33332 18.8782 6.65701 18.4129 8.34308 18.1931C8.79471 18.1347 9.03351 17.9858 9.03351 17.6892C9.03345 17.2505 8.67316 17.032 8.02081 17.032C7.33378 17.032 6.57198 17.4007 6.10089 17.8318L5.56476 16.7029C6.15189 16.2349 7.23427 15.7908 8.17413 15.7908ZM18.6331 13.1062C19.5604 13.1063 20.0706 13.4402 20.0706 13.4402L19.5667 14.5906C19.559 14.5862 19.2425 14.408 18.8372 14.408C18.4653 14.408 18.0335 14.624 18.0335 15.3787V15.9587H19.513V17.2175H18.0335V21.6648H16.4036V17.2175H13.928V21.6648H12.2972V17.2175H11.3499V15.9587H12.2972V15.5388C12.2974 13.694 13.4839 13.1062 14.5267 13.1062C15.1814 13.1062 15.6637 13.2634 15.9642 13.4402L15.4612 14.5906C15.2261 14.4576 14.9411 14.408 14.7298 14.408C14.3587 14.4081 13.928 14.6243 13.928 15.3787V15.9587H16.4036V15.5388C16.4038 13.694 17.5904 13.1062 18.6331 13.1062ZM22.1155 15.9587V21.6648H20.4866V15.9587H22.1155ZM26.7239 15.7917C26.9398 15.7918 27.2034 15.8151 27.4554 15.9226L27.1575 17.4314C26.9655 17.2878 26.6754 17.2254 26.4603 17.2253C25.9085 17.2253 25.1176 17.6087 25.1175 18.9158V21.6648H23.4857V15.9587H25.0091V16.9177C25.3572 16.1632 25.8848 15.7917 26.7239 15.7917ZM35.0208 15.7917C36.0637 15.7917 36.9271 16.4388 36.9271 17.7214V21.6648H35.2962V18.2371C35.2962 17.4817 34.8415 17.1678 34.4105 17.1677C33.871 17.1677 33.3314 17.6616 33.3314 18.7283V21.6648H31.7005V18.2488C31.7005 17.4703 31.2715 17.1677 30.805 17.1677C30.2894 17.1679 29.7376 17.6733 29.7376 18.7283V21.6648H28.1048V15.9587H29.678V16.822C29.9539 16.271 30.5514 15.7917 31.4144 15.7917C32.2049 15.7919 32.8661 16.1583 33.178 16.7937C33.5138 16.302 34.1581 15.7919 35.0208 15.7917ZM9.00031 19.0789C7.68481 19.218 6.96417 19.4388 6.96417 20.0828C6.96432 20.4307 7.17808 20.6414 7.60675 20.6414C8.41813 20.6412 9.00026 19.9402 9.00031 19.0789Z" fill="#060809"/>
<path fill-rule="evenodd" clip-rule="evenodd" d="M29.9911 8C25.5861 8 21.6598 11.0578 20.5455 14.9894H22.1425C23.0731 12.0615 26.2324 9.49165 29.9911 9.49165C34.5598 9.49165 38.5083 12.9698 38.5083 18.3847C38.5083 19.6004 38.3508 20.6963 38.0526 21.6646H39.6019L39.6172 21.6116C39.8708 20.6125 39.9999 19.5274 39.9999 18.3847C39.9999 12.3458 35.5996 8 29.9911 8Z" fill="#0FA0EA"/>
</svg>
