<svg width="46" height="32" viewBox="0 0 46 32" fill="none" xmlns="http://www.w3.org/2000/svg">
<rect x="0.5" y="0.5" width="45" height="31" rx="3.5" fill="white"/>
<rect x="0.5" y="0.5" width="45" height="31" rx="3.5" stroke="#F4F4F5"/>
<path d="M29.3091 15.9391C30.0175 15.9545 30.7298 15.9078 31.4354 15.9633C32.1498 16.0966 32.3221 17.1782 31.6873 17.5325C31.2542 17.7659 30.7397 17.6194 30.2701 17.6606H29.3091V15.9391ZM31.8449 13.9905C32.0023 14.546 31.4668 15.0448 30.9318 14.9683H29.3091C29.3205 14.4444 29.2869 13.8758 29.3256 13.3796C29.9756 13.3979 30.6317 13.3422 31.278 13.4087C31.5557 13.4784 31.7881 13.7067 31.8449 13.9905ZM35.7502 5.75272C35.7803 6.81358 35.7545 7.9305 35.7632 9.01287C35.7612 13.4134 35.7674 17.8138 35.7597 22.2146C35.7312 23.8638 34.2697 25.2968 32.6319 25.3297C30.9925 25.3364 29.3529 25.3308 27.7133 25.3326V18.6799C29.4997 18.6707 31.287 18.6986 33.0727 18.666C33.9011 18.614 34.8085 18.0674 34.847 17.1558C34.9446 16.2402 34.0814 15.6069 33.2618 15.5069C32.9468 15.4987 32.956 15.4151 33.2618 15.3786C34.0435 15.2097 34.6573 14.4007 34.4273 13.5905C34.2314 12.7383 33.2895 12.4085 32.5061 12.4101C30.9087 12.3993 29.3111 12.4086 27.7136 12.4055C27.7239 11.1635 27.6921 9.92018 27.7308 8.67912C27.8573 7.05968 29.3557 5.72417 30.9705 5.75315C32.5639 5.75291 34.1571 5.75291 35.7502 5.75285V5.75272Z" fill="url(#paint0_linear_1509_9775)"/>
<path d="M9.662 8.8469C9.70279 7.20031 11.1706 5.77903 12.8063 5.75496C14.4396 5.74993 16.0732 5.75424 17.7065 5.75278C17.702 11.2619 17.7153 16.7717 17.6998 22.2805C17.6369 23.9071 16.185 25.3013 14.5672 25.3301C12.9308 25.336 11.2942 25.331 9.65769 25.3326V18.4556C11.2472 18.8311 12.9141 18.991 14.5358 18.7419C15.5051 18.5859 16.5656 18.1099 16.8938 17.1043C17.1353 16.2441 16.9993 15.3388 17.0353 14.4559V12.4055H14.2289C14.2163 13.7616 14.2547 15.12 14.2086 16.4744C14.133 17.3069 13.3085 17.8359 12.5233 17.8076C11.5496 17.8179 9.61999 17.1019 9.61999 17.1019C9.61514 14.5612 9.64824 11.3794 9.662 8.84714V8.8469Z" fill="url(#paint1_linear_1509_9775)"/>
<path d="M18.7531 13.2326C18.6053 13.2639 18.7234 12.7294 18.6856 12.5267C18.6957 11.2446 18.6646 9.96118 18.7028 8.68005C18.829 7.05376 20.3389 5.71492 21.9602 5.75299H26.7348C26.7303 11.2621 26.7436 16.7719 26.7281 22.2807C26.6651 23.9073 25.2131 25.3015 23.5952 25.3303C21.9588 25.3365 20.3221 25.3313 18.6855 25.3329V17.7982C19.8032 18.7153 21.3224 18.858 22.7148 18.8605C23.7646 18.8601 24.8082 18.6983 25.8277 18.4562V17.0758C24.6788 17.6484 23.3283 18.0121 22.0547 17.6831C21.1663 17.462 20.5214 16.6034 20.5358 15.6866C20.4329 14.7332 20.9918 13.7266 21.9287 13.4431C23.092 13.0789 24.3598 13.3575 25.4503 13.831C25.6839 13.9533 25.921 14.105 25.8276 13.7145V12.6295C24.0039 12.1956 22.0631 12.036 20.2309 12.508C19.7006 12.6576 19.1839 12.8845 18.7531 13.2327V13.2326Z" fill="url(#paint2_linear_1509_9775)"/>
<defs>
<linearGradient id="paint0_linear_1509_9775" x1="27.6583" y1="15.124" x2="35.7124" y2="15.124" gradientUnits="userSpaceOnUse">
<stop stop-color="#58B03A"/>
<stop offset="1" stop-color="#55B330"/>
</linearGradient>
<linearGradient id="paint1_linear_1509_9775" x1="9.48644" y1="15.7302" x2="17.5745" y2="15.7302" gradientUnits="userSpaceOnUse">
<stop stop-color="#0F6EB6"/>
<stop offset="1" stop-color="#006DBA"/>
</linearGradient>
<linearGradient id="paint2_linear_1509_9775" x1="18.6737" y1="15.314" x2="26.7333" y2="15.314" gradientUnits="userSpaceOnUse">
<stop stop-color="#DE0D3D"/>
<stop offset="1" stop-color="#E30138"/>
</linearGradient>
</defs>
</svg>
