<svg width="21" height="20" viewBox="0 0 21 20" fill="none" xmlns="http://www.w3.org/2000/svg">
<g clip-path="url(#clip0_18_353)">
<path d="M17.6366 8.33337C17.6366 14.1667 10.078 19.1667 10.078 19.1667C10.078 19.1667 2.51953 14.1667 2.51953 8.33337C2.51953 6.34425 3.31587 4.4366 4.73337 3.03007C6.15086 1.62355 8.0734 0.833374 10.078 0.833374C12.0827 0.833374 14.0052 1.62355 15.4227 3.03007C16.8402 4.4366 17.6366 6.34425 17.6366 8.33337Z" stroke="currentColor" stroke-width="2" stroke-linecap="round" stroke-linejoin="round"/>
<path d="M10.078 10.8334C11.4695 10.8334 12.5975 9.71409 12.5975 8.33337C12.5975 6.95266 11.4695 5.83337 10.078 5.83337C8.68655 5.83337 7.55853 6.95266 7.55853 8.33337C7.55853 9.71409 8.68655 10.8334 10.078 10.8334Z" stroke="currentColor" stroke-width="2" stroke-linecap="round" stroke-linejoin="round"/>
</g>
<defs>
<clipPath id="clip0_18_353">
<rect width="20.156" height="20" fill="white"/>
</clipPath>
</defs>
</svg>
