<svg width="25" height="24" viewBox="0 0 25 24" fill="none" xmlns="http://www.w3.org/2000/svg">
<path d="M21.3353 16V7.99999C21.3349 7.64927 21.2408 7.3048 21.0625 7.00116C20.8842 6.69751 20.6279 6.44536 20.3193 6.26999L13.2075 2.26999C12.8986 2.09446 12.5482 2.00204 12.1916 2.00204C11.8349 2.00204 11.4845 2.09446 11.1756 2.26999L4.06385 6.26999C3.75526 6.44536 3.49895 6.69751 3.32063 7.00116C3.14231 7.3048 3.04825 7.64927 3.04788 7.99999V16C3.04825 16.3507 3.14231 16.6952 3.32063 16.9988C3.49895 17.3025 3.75526 17.5546 4.06385 17.73L11.1756 21.73C11.4845 21.9055 11.8349 21.9979 12.1916 21.9979C12.5482 21.9979 12.8986 21.9055 13.2075 21.73L20.3193 17.73C20.6279 17.5546 20.8842 17.3025 21.0625 16.9988C21.2408 16.6952 21.3349 16.3507 21.3353 16Z" stroke="currentColor" stroke-width="2" stroke-linecap="round" stroke-linejoin="round"/>
<path d="M7.61975 4.20999L12.1916 6.80999L16.7634 4.20999" stroke="currentColor" stroke-width="2" stroke-linecap="round" stroke-linejoin="round"/>
<path d="M7.61973 19.79V14.6L3.04788 12" stroke="currentColor" stroke-width="2" stroke-linecap="round" stroke-linejoin="round"/>
<path d="M21.3353 12L16.7634 14.6V19.79" stroke="currentColor" stroke-width="2" stroke-linecap="round" stroke-linejoin="round"/>
<path d="M3.3222 6.95999L12.1916 12.01L21.061 6.95999" stroke="currentColor" stroke-width="2" stroke-linecap="round" stroke-linejoin="round"/>
<path d="M12.1916 22.08V12" stroke="currentColor" stroke-width="2" stroke-linecap="round" stroke-linejoin="round"/>
</svg>
