<svg width="22" height="21" viewBox="0 0 22 21" fill="none" xmlns="http://www.w3.org/2000/svg">
<path d="M2.64548 14H5.29096C5.75871 14 6.2073 14.1844 6.53805 14.5126C6.8688 14.8408 7.05461 15.2859 7.05461 15.75V18.375M7.05461 2.625V5.25C7.05461 5.71413 6.8688 6.15925 6.53805 6.48744C6.2073 6.81563 5.75871 7 5.29096 7H2.64548L7.05461 2.625ZM18.5183 7H15.8729C15.4051 7 14.9565 6.81563 14.6258 6.48744C14.295 6.15925 14.1092 5.71413 14.1092 5.25V2.625L18.5183 7ZM14.1092 18.375V15.75C14.1092 15.2859 14.295 14.8408 14.6258 14.5126C14.9565 14.1844 15.4051 14 15.8729 14H18.5183L14.1092 18.375Z" stroke="currentColor" stroke-width="2" stroke-linecap="round" stroke-linejoin="round"/>
</svg>
